# xmcd
#
# Track frame offsets: 
#        150
#        11960
#        30618
#        49088
#        61965
#        89648
#        99673
#        113705
#        136968
#        148873
#        161175
#        171165
#        183260
#        201830
#        217050
#        226675
#
# Disc length: 3276 seconds
#
# Revision: 5
# Processed by: cddbd v1.5.2PL0 Copyright (c) Steve Scherf et al.
# Submitted via: ExactAudioCopy v0.99pb4
#
DISCID=e90cca10
DTITLE=Various Artist - Soul Shots Vol. 4
DYEAR=1989
DGENRE=Soul
TTITLE0=Little Junior Parker - Driving Wheel
TTITLE1=Bobby Bland - Stormy Monday Blues
TTITLE2=Little Milton - Feel So Bad
TTITLE3=Tommy Tucker - Hi-Heel Sneakers
TTITLE4=B.B. King - Sweet Sixteen (Pt. 1)
TTITLE5=James Wells - Messin' With The Kid
TTITLE6=Lowell Fulsom - Tramp
TTITLE7=B.B. King - Don't Answer The Door (Pt. 1)
TTITLE8=Otis Rush - Homework
TTITLE9=Bobby Bland - I Pity The Fool
TTITLE10=Buddy Guy - First Time I Met The Blues
TTITLE11=Little Milton - Grits Ain't Groceries (All Around The World)
TTITLE12=Albert Collins - Trash Talkin'
TTITLE13=Z.Z. Hill - I Need Someone (To Love Me)
TTITLE14=Rosco Gordon - Just A Little Bit
TTITLE15=Little Richard - I Don't Know What You've Got But It's Got Me
TTITLE15=(Pt. 1)
EXTD=
EXTT0=
EXTT1=
EXTT2=
EXTT3=
EXTT4=
EXTT5=
EXTT6=
EXTT7=
EXTT8=
EXTT9=
EXTT10=
EXTT11=
EXTT12=
EXTT13=
EXTT14=
EXTT15=
PLAYORDER=
